Coordinates
version=1
nRows=49
nColumns=12
inDegrees=yes

Units are S.I. units (second, meters, Newtons, ...)
Angles are in degrees

endheader
time	SC_y	SC_z	SC_x	AC_y	AC_z	AC_x	GH_y	GH_z	GH_yy	EL_x	PS_y
       0.0              -40.73          33.67          23.81          41.73         -18.99          3.768          137.9          84.37          8.604          65.84          145.9
  0.008692              -40.73          33.66          23.81          41.73         -18.98          3.766          137.9          84.36          8.617          65.84          145.9
   0.01738              -40.73          33.66           23.8          41.73         -18.98          3.764          137.9          84.35           8.63          65.84          145.8
   0.02608              -40.73          33.66           23.8          41.73         -18.97          3.762          137.8          84.33          8.644          65.84          145.8
   0.03477              -40.73          33.66           23.8          41.73         -18.97          3.761          137.8          84.32          8.659          65.84          145.8
   0.04346              -40.73          33.66          23.79          41.74         -18.96          3.759          137.8          84.31          8.675          65.84          145.8
   0.05215              -40.73          33.66          23.79          41.74         -18.96          3.756          137.7          84.29          8.692          65.84          145.8
   0.06084              -40.73          33.66          23.79          41.74         -18.95          3.754          137.7          84.28           8.71          65.84          145.8
   0.06954              -40.73          33.65          23.78          41.74         -18.95          3.752          137.7          84.26           8.73          65.85          145.8
   0.07823              -40.74          33.65          23.78          41.75         -18.94          3.749          137.6          84.25          8.751          65.85          145.8
   0.08692              -40.74          33.65          23.77          41.75         -18.93          3.746          137.6          84.23          8.773          65.85          145.8
   0.09561              -40.74          33.65          23.77          41.75         -18.93          3.743          137.5          84.21          8.797          65.85          145.7
    0.1043              -40.74          33.65          23.76          41.75         -18.92           3.74          137.5          84.19          8.823          65.85          145.7
     0.113              -40.74          33.64          23.75          41.76         -18.91          3.736          137.4          84.16          8.851          65.85          145.7
    0.1217              -40.74          33.64          23.75          41.76          -18.9          3.732          137.4          84.14          8.882          65.86          145.7
    0.1304              -40.74          33.64          23.74          41.76         -18.89          3.728          137.3          84.11          8.915          65.86          145.7
    0.1391              -40.74          33.63          23.73          41.77         -18.88          3.724          137.2          84.08          8.951          65.86          145.6
    0.1478              -40.74          33.63          23.72          41.77         -18.86          3.719          137.2          84.05           8.99          65.86          145.6
    0.1565              -40.74          33.63          23.71          41.78         -18.85          3.713          137.1          84.01          9.032          65.87          145.6
    0.1652              -40.74          33.62           23.7          41.78         -18.84          3.708          137.0          83.97          9.079          65.87          145.6
    0.1738              -40.74          33.62          23.69          41.79         -18.82          3.701          136.9          83.93           9.13          65.87          145.5
    0.1825              -40.74          33.61          23.68          41.79          -18.8          3.694          136.8          83.88          9.187          65.88          145.5
    0.1912              -40.74          33.61          23.67           41.8         -18.78          3.686          136.7          83.83          9.249          65.88          145.4
    0.1999              -40.74           33.6          23.65          41.81         -18.76          3.677          136.5          83.77          9.318          65.88          145.4
    0.2086              -40.74           33.6          23.63          41.82         -18.73          3.668          136.4          83.71          9.395          65.89          145.4
    0.2173              -40.74          33.59          23.61          41.83         -18.71          3.657          136.2          83.64          9.481          65.89          145.3
     0.226              -40.74          33.58          23.59          41.84         -18.68          3.645          136.0          83.56          9.577           65.9          145.2
    0.2347              -40.74          33.57          23.57          41.85         -18.64          3.631          135.8          83.47          9.685          65.91          145.2
    0.2434              -40.74          33.56          23.54          41.86          -18.6          3.616          135.6          83.37          9.807          65.92          145.1
    0.2521              -40.74          33.55          23.51          41.88         -18.56          3.598          135.3          83.25          9.946          65.92          145.0
    0.2608              -40.74          33.53          23.48           41.9         -18.51          3.578          135.0          83.12           10.1          65.93          144.9
    0.2695              -40.74          33.52          23.44          41.92         -18.45          3.555          134.6          82.97          10.29          65.95          144.8
    0.2781              -40.74           33.5          23.39          41.94         -18.38          3.529          134.2           82.8           10.5          65.96          144.6
    0.2868              -40.75          33.48          23.33          41.97         -18.31          3.498          133.8           82.6          10.74          65.98          144.5
    0.2955              -40.75          33.45          23.27           42.0         -18.22          3.462          133.2          82.36          11.02          65.99          144.3
    0.3042              -40.75          33.42           23.2          42.04         -18.11          3.419          132.6          82.08          11.36          66.02          144.1
    0.3129              -40.75          33.39          23.11          42.08         -17.98          3.369          131.8          81.75          11.76          66.04          143.8
    0.3216              -40.75          33.34           23.0          42.14         -17.83          3.308          130.9          81.35          12.24          66.07          143.5
    0.3303              -40.76          33.29          22.87           42.2         -17.65          3.235          129.7          80.87          12.82          66.11          143.1
     0.339              -40.76          33.23          22.72          42.28         -17.42          3.146          128.4          80.28          13.52          66.16          142.7
    0.3477              -40.77          33.15          22.52          42.38         -17.14          3.036          126.7          79.56           14.4          66.21          142.1
    0.3564              -40.77          33.06          22.28           42.5          -16.8          2.898          124.5          78.65          15.49          66.28          141.4
    0.3651              -40.78          32.94          21.98          42.66         -16.36          2.725          121.9          77.52          16.86          66.37          140.5
    0.3738              -40.79          32.78          21.59          42.86          -15.8          2.505          118.5          76.07           18.6          66.48          139.4
    0.3825               -40.8          32.59          21.09          43.11         -15.09          2.223          114.2          74.22          20.83          66.63          137.9
    0.3911              -40.81          32.34          20.46          43.43         -14.18          1.861          108.6          71.84          23.69          66.81          136.1
    0.3998              -40.83          32.01          19.65          43.84         -13.02          1.399          101.5           68.8          27.35          67.05          133.7
    0.4085              -40.86          31.61          18.62          44.36         -11.56         0.8176          92.59          64.99          31.95          67.35          130.7
    0.4172              -40.89          31.11          17.38          44.99         -9.772         0.1094          81.71          60.33          37.55          67.71          127.1
